<svg xmlns="http://www.w3.org/2000/svg" version="1.1" xmlns:xlink="http://www.w3.org/1999/xlink" xmlns:svgjs="http://svgjs.com/svgjs" width="512" height="512" x="0" y="0" viewBox="0 0 100 100" xml:space="preserve" class=""><g><path d="M50 78a2.995 2.995 0 0 1-2.1-.857L23.264 53.004a3.37 3.37 0 0 1-.138-.13C19.82 49.569 18 45.174 18 40.5s1.82-9.069 5.126-12.374C26.431 24.82 30.826 23 35.5 23a17.382 17.382 0 0 1 12.484 5.241L50 30.257l2.017-2.016c.035-.04.071-.078.109-.115C55.431 24.82 59.826 23 64.5 23s9.069 1.82 12.374 5.126C80.18 31.431 82 35.826 82 40.5s-1.82 9.069-5.126 12.374a2.798 2.798 0 0 1-.138.13L52.1 77.143A2.995 2.995 0 0 1 50 78zM27.269 48.531l.081.076L50 70.8l22.65-22.193a1.96 1.96 0 0 1 .081-.076c4.384-4.492 4.351-11.712-.099-16.163A11.427 11.427 0 0 0 64.5 29c-3.024 0-5.871 1.16-8.031 3.269a2.359 2.359 0 0 1-.098.102l-4.25 4.25a2.998 2.998 0 0 1-4.242 0l-4.25-4.25a1.916 1.916 0 0 1-.098-.103A11.427 11.427 0 0 0 35.5 29a11.427 11.427 0 0 0-8.132 3.368c-4.45 4.451-4.483 11.672-.099 16.163z" fill="#000000" data-original="#000000" class=""></path></g></svg>