<svg xmlns="http://www.w3.org/2000/svg" viewBox="0 0 278.95 372.6"><defs><style>.cls-1{fill:#222221;}</style></defs><title>logoРесурс 2</title><g id="Шар_2" data-name="Шар 2"><g id="Шар_1-2" data-name="Шар 1"><path class="cls-1" d="M270.07,114.61,241.59,88.4,242.09,7a6.53,6.53,0,0,0-11-4.76l-42.86,37-39-35.95a12.72,12.72,0,0,0-17.2.05L8.75,118.16A27.16,27.16,0,0,0,0,137.9V357.65c0,8.24,7.06,15,15.74,15H39.58A7.33,7.33,0,0,0,47,365.4V186.31a4,4,0,0,0-8,0V364.6H15.74c-4.27,0-7.74-3.12-7.74-7V137.9A18.85,18.85,0,0,1,14.2,124L137.41,9.23a4.78,4.78,0,0,1,6.32,0l38.38,35.32L83,130.1l-.23.22a19.1,19.1,0,0,0-5.52,13.5V242.7a4,4,0,0,0,8,0V143.82a11.28,11.28,0,0,1,3.11-7.77L188,50l45.54,41.91-1.64,265.76a6.89,6.89,0,0,1-6.81,7H186.25a6.89,6.89,0,0,1-6.81-7V293A14.89,14.89,0,0,0,164.63,278H135A14.89,14.89,0,0,0,120.22,293v64.7a6.89,6.89,0,0,1-6.8,7H82a4,4,0,1,0,0,8h31.39a14.9,14.9,0,0,0,14.8-15V293A6.88,6.88,0,0,1,135,286h29.6a6.88,6.88,0,0,1,6.81,6.94v64.7a14.9,14.9,0,0,0,14.81,15h38.87a14.89,14.89,0,0,0,14.81-14.92l1.59-258.47,23.13,21.29a18.86,18.86,0,0,1,6.3,14V329.58a4,4,0,0,0,8,0V134.47A27.15,27.15,0,0,0,270.07,114.61ZM194.13,44.72l39.94-34.48-.43,70.84Z"/></g></g></svg>