<?xml version="1.0" encoding="UTF-8"?>
<!DOCTYPE svg PUBLIC "-//W3C//DTD SVG 1.1//EN" "http://www.w3.org/Graphics/SVG/1.1/DTD/svg11.dtd">
<!-- Creator: CorelDRAW 2019 (64-Bit) -->
<svg xmlns="http://www.w3.org/2000/svg" xml:space="preserve" width="19.6cm" height="4.7cm" version="1.1" style="shape-rendering:geometricPrecision; text-rendering:geometricPrecision; image-rendering:optimizeQuality; fill-rule:evenodd; clip-rule:evenodd"
viewBox="0 0 19600 4700"
 xmlns:xlink="http://www.w3.org/1999/xlink">
 <defs>
  <style type="text/css">
   <![CDATA[
    .fil2 {fill:#3A0C8C}
    .fil0 {fill:#3B3B3B}
    .fil1 {fill:url(#id0)}
   ]]>
  </style>
  <linearGradient id="id0" gradientUnits="userSpaceOnUse" x1="2437.68" y1="4677.45" x2="2437.68" y2="23.06">
   <stop offset="0" style="stop-opacity:1; stop-color:#400693"/>
   <stop offset="0.2" style="stop-opacity:1; stop-color:#3E058F"/>
   <stop offset="0.368627" style="stop-opacity:1; stop-color:#3A0585"/>
   <stop offset="0.521569" style="stop-opacity:1; stop-color:#320474"/>
   <stop offset="0.658824" style="stop-opacity:1; stop-color:#28035D"/>
   <stop offset="0.8" style="stop-opacity:1; stop-color:#1B023E"/>
   <stop offset="0.921569" style="stop-opacity:1; stop-color:#0B0119"/>
   <stop offset="1" style="stop-opacity:1; stop-color:black"/>
  </linearGradient>
 </defs>
 <g id="Слой_x0020_1">
  <metadata id="CorelCorpID_0Corel-Layer"/>
  <g id="_3293661275504">
   <path class="fil0" d="M8484.65 1532.35c0,377.03 -87.01,670.33 -261.25,879.66 -174.01,209.33 -448.37,314.11 -822.36,314.11 -725.29,0 -1087.82,-397.85 -1087.82,-1193.77 0,-382.88 87.01,-678.75 261.25,-888.31 174.01,-209.33 449.77,-314.11 826.8,-314.11 377.03,0 648.34,104.78 822.36,314.11 174.01,209.33 261.25,505.44 261.25,888.31l-0.23 0zm-576.3 0c0,-248.86 -38.83,-430.59 -116.48,-544.96 -77.65,-114.37 -207.93,-171.67 -390.6,-171.67 -182.67,0 -312.24,58.71 -392.93,175.88 -80.69,117.41 -120.92,297.51 -120.92,540.75 0,243.24 40,419.83 119.75,534.2 79.76,114.37 211.2,171.67 393.87,171.67 182.67,0 309.44,-56.37 388.49,-169.34 79.05,-112.97 118.82,-291.66 118.82,-536.31l0 -0.22z"/>
   <path class="fil0" d="M10580.54 394.71l0 897.9 170.5 0c96.36,0 180.33,-62.21 251.43,-186.64 71.34,-124.43 157.17,-361.59 257.98,-711.26l574.2 0c-84.9,309.44 -173.08,551.28 -264.3,725.29 -91.45,174.25 -197.64,299.38 -318.32,375.63 90.75,44.67 167,100.1 228.74,166.3 61.98,66.19 117.18,145.71 166.3,238.57 48.88,92.85 93.09,201.85 132.85,326.98 39.76,125.13 84.43,269.21 134.95,431.76l-574.19 -0.01c-53.09,-165.36 -100.34,-308.03 -141.27,-427.32 -40.93,-119.52 -83.73,-217.98 -128.41,-295.64 -44.67,-77.65 -94.26,-134.95 -148.99,-171.67 -54.73,-36.72 -121.62,-54.96 -200.68,-54.96l-140.32 0 0 949.83 -556.89 -0.01 0 -949.83 -146.89 0.01c-94.96,0 -174.48,28.07 -238.57,84.2 -64.09,56.13 -122.56,142.91 -175.88,260.09 -53.09,117.41 -120.22,319.03 -200.68,605.54l-578.41 -0.01c99.4,-339.61 175.65,-567.65 228.74,-684.36 53.33,-116.48 113.67,-213.31 181.26,-290.26 67.59,-76.95 153.2,-139.87 256.81,-188.98 -116.48,-73.44 -221.96,-195.77 -316.22,-366.97 -94.26,-171.21 -184.54,-415.86 -270.84,-733.95l574.21 0c82.1,302.19 163.25,527.42 243.95,675.71 80.69,148.29 169.1,222.43 265.46,222.43l177.06 0 0 -897.9 556.89 0 -0.47 -0.47z"/>
   <polygon class="fil0" points="12812.55,2658.99 12285.83,2658.99 12285.83,394.71 12791.03,394.71 12791.03,1925.05 13837.92,394.71 14368.85,394.71 14368.85,2658.99 13863.64,2658.99 13863.64,1132.86 12812.31,2658.99 "/>
   <polygon class="fil0" points="16941.63,2658.99 16384.74,2658.99 16384.74,1704.95 15469.53,1704.96 15469.53,2659 14912.64,2658.99 14912.64,394.71 15469.53,394.71 15469.53,1288.4 16384.74,1288.4 16384.74,394.71 16941.63,394.71 "/>
   <path class="fil0" d="M18873.56 2658.99l0 -235.29c-220.09,201.38 -456.08,302.19 -707.98,302.19 -251.9,0 -439.71,-65.96 -567.65,-197.4 -128.17,-131.68 -192.02,-300.31 -192.02,-506.14 0,-161.15 32.74,-294.23 98.23,-399.25 65.49,-105.02 162.55,-187.35 291.43,-247.22 128.87,-59.64 314.11,-101.74 555.96,-126.3l477.13 -45.37 0 -101.51c0,-126.53 -38.12,-213.31 -114.37,-260.09 -76.25,-46.78 -187.81,-70.17 -334.46,-70.17 -120.92,0 -224.77,20.11 -312.01,60.34 -87.01,40.23 -151.56,97.77 -193.19,172.61l-433.86 -278.33c76.25,-128.17 195.77,-226.17 358.32,-294.7 162.55,-68.3 359.02,-102.44 589.17,-102.44 352.47,0 606.94,61.51 762.95,184.54 156.24,123.03 234.12,324.87 234.12,605.54l0 1538.99 -511.54 0 -0.23 0zm-45.38 -1051.1l-282.77 25.96c-199.98,17.31 -344.29,55.43 -432.7,114.37 -88.41,58.94 -132.62,147.58 -132.62,265.46 0,103.61 28.77,174.48 86.31,212.61 57.54,38.12 133.78,57.3 228.74,57.3 67.59,0 149.92,-21.28 247.22,-63.62 97.06,-42.33 192.49,-102.44 286.05,-180.33l0 -431.76 -0.23 0.01z"/>
  </g>
  <g id="_3293661259632">
   <path class="fil0" d="M6924.14 3765.99c0,116.94 -26.2,208.86 -78.59,275.76 -52.39,66.89 -126.3,100.34 -221.96,100.34 -112.5,0 -196.23,-39.76 -251.43,-119.05 -55.2,-79.29 -83.03,-194.6 -83.03,-345.92 0,-87.47 4.68,-161.85 14.03,-222.9 9.36,-61.28 23.62,-112.5 43.27,-154.37 19.41,-41.63 44.44,-75.08 75.08,-100.34 30.64,-25.26 67.59,-44.91 110.86,-59.41 43.27,-14.5 93.32,-25.26 149.92,-32.74 56.6,-7.25 120.69,-14.27 192.49,-21.05l0 111.57c-76.25,5.38 -142.91,11.93 -200.44,19.41 -57.53,7.48 -105.72,22.45 -144.78,44.91 -39.06,22.45 -68.3,54.96 -87.71,97.53 -19.41,42.57 -29.24,101.04 -29.24,175.42 29.47,-29 65.02,-51.92 106.65,-69 41.63,-17.07 84.9,-25.49 129.81,-25.49 183.6,0 275.29,108.52 275.29,325.57l-0.22 -0.24zm-120.92 5.38c0,-77.89 -14.5,-136.36 -43.27,-175.42 -28.77,-39.06 -74.61,-58.47 -137.76,-58.47 -36.72,0 -74.14,10.29 -112.27,30.64 -38.12,20.35 -70.63,47.01 -98,79.52l-1.4 29.24 0 29.24c0,108.29 18.71,192.02 56.13,250.96 37.42,58.94 90.05,88.41 158.11,88.41 55.67,0 99.4,-25.96 130.98,-77.89 31.58,-51.93 47.25,-117.18 47.25,-196.23l0.23 0z"/>
   <path class="fil0" d="M6998.29 4272.36c29.47,13.1 63.62,19.65 102.68,19.65 54.73,0 101.27,-49.58 139.4,-148.99l23.86 -61.28 -260.32 -674.3 126.52 0 196.47 522.04 197.87 -522.04 122.33 0 -304.52 767.63c-32.28,78.35 -66.66,133.78 -103.38,165.83 -36.72,32.28 -84.43,48.18 -143.37,48.18 -21.28,0 -43.97,-2.11 -68.06,-6.08 -24.09,-3.98 -43.5,-8.89 -58.47,-14.27l29.24 -96.6 -0.25 0.23z"/>
   <path class="fil0" d="M7638.68 4277.74l0 -250.26 66.66 0c43.5,-85.6 76.48,-183.14 99.17,-292.36 22.69,-109.23 33.91,-218.45 33.91,-327.68l402.52 0 0 620.04 114.14 0 0 250.26 -111.57 0 0 -156.94 -494.2 0 0 156.94 -110.87 0 0.24 0zm488.12 -776.28l-178.22 0c-5.38,97.06 -19.18,190.39 -41.16,280.43 -21.98,90.04 -51.69,171.91 -89.35,245.82l308.73 0 0 -526.25z"/>
   <path class="fil0" d="M8635.28 3226.88c0,27.13 -6.08,45.61 -18.48,55.43 -12.16,9.82 -31.81,14.5 -58.47,14.5 -28.53,0 -48.18,-6.08 -59.17,-18.48 -10.76,-12.16 -16.37,-29.47 -16.37,-51.69 0,-24.09 5.85,-41.63 17.78,-52.63 11.69,-10.99 31.11,-16.61 57.77,-16.61 26.66,0 47.25,5.38 59.17,15.9 11.69,10.76 17.78,28.53 17.78,53.33l-0.01 0.25zm-135.19 893.92l0 -713.13 116.95 0 0 713.13 -116.95 0z"/>
   <path class="fil0" d="M9408.99 3903.99c0,76.48 -25.96,131.91 -77.89,165.83 -51.92,33.91 -127.94,50.99 -228.04,50.99l-254.94 -0.01 0 -713.13 252.13 0c102.44,0 174.25,12.4 215.18,37.42 40.93,25.03 61.51,68.3 61.51,129.81 0,83.03 -36.72,139.16 -110.16,168.63 48.88,10.99 84.9,29 107.82,54.5 22.92,25.49 34.38,60.81 34.38,105.95l0.01 0.01zm-148.99 -310.61c0,-40 -13.57,-65.72 -40.46,-77.18 -26.89,-11.46 -68.06,-17.31 -123.49,-17.31l-134.03 0 0 211.44 125.13 0c115.07,0 172.61,-39.06 172.61,-116.94l0.24 -0.01zm29.23 313.41c0,-41.16 -13.57,-69 -40.46,-83.26 -26.89,-14.26 -73.21,-21.52 -138.93,-21.52l-147.58 0 0 225.7 99.87 0c75.31,0 131.91,-7.72 170.04,-23.16 38.12,-15.44 57.07,-47.95 57.07,-98l-0.01 0.24z"/>
   <path class="fil0" d="M9679.36 3778.15c0,94.26 16.14,161.38 48.18,201.61 32.28,40 83.73,60.11 155.07,60.11 31.81,0 59.64,-6.78 83.73,-20.11 24.09,-13.33 47.25,-35.08 69.23,-65.02l96.6 59.88c-27.13,40.7 -60.34,72.27 -99.17,94.26 -39.06,21.99 -91.68,32.98 -158.34,32.98 -105.95,0 -185.24,-30.87 -237.63,-92.39 -52.39,-61.75 -78.59,-154.83 -78.59,-279.5 0,-124.67 25.49,-226.87 76.48,-289.32 50.99,-62.21 127.94,-93.56 230.85,-93.56 92.39,0 161.85,26.66 207.93,79.99 46.31,53.33 69.23,135.19 69.23,245.82l0 65.26 -463.57 -0.01zm349.43 -91.68c-0.94,-63.85 -14.5,-113.44 -40.46,-148.99 -25.96,-35.32 -68.3,-53.09 -126.77,-53.09 -58.47,0 -97.53,15.9 -125.36,47.95 -27.83,32.04 -46.31,83.26 -55.43,153.9l348.02 0 0 0.23z"/>
   <path class="fil0" d="M10536.8 3504.04l0 49.58c0,115.54 -9.82,217.98 -29.47,306.86 -19.65,88.88 -47.48,156.47 -83.73,202.31 -36.02,45.84 -78.59,68.76 -127.47,68.76 -11.23,0 -24.79,-1.4 -40.46,-3.98 -15.67,-2.58 -27.37,-5.38 -35.08,-8.19l22.45 -101.98c16.84,3.27 31.11,4.68 42.8,4.68 92.85,0 139.4,-169.57 139.4,-508.48l0 -105.95 413.98 0.02 0 713.13 -114.14 0 0 -616.53 -188.28 0 0 -0.23z"/>
   <path class="fil0" d="M11184.67 3676.88l111.57 0c102.91,0 177.29,18.01 223.36,54.03 46.08,36.02 69,94.96 69,177.05 0,72.97 -22.45,126.77 -66.89,161.15 -44.67,34.38 -118.35,51.69 -221.26,51.69l-229.68 0 0 -713.13 114.14 0 0 269.21 -0.24 0zm284.18 229.68c0,-37.19 -6.08,-65.26 -18.24,-83.97 -12.16,-18.71 -31.81,-32.28 -58.71,-40.46 -26.9,-8.19 -64.55,-12.16 -112.5,-12.16l-94.49 0 0 257.75 111.56 -0.01c63.85,0 108.76,-9.82 134.25,-29.24 25.49,-19.41 38.36,-50.05 38.36,-91.68l-0.23 -0.23z"/>
   <polygon class="fil0" points="12316.47,4120.8 12202.33,4120.8 12202.33,3800.61 11855.7,3800.61 11855.7,4120.8 11741.57,4120.8 11741.57,3407.67 11855.7,3407.67 11855.7,3706.11 12202.33,3706.12 12202.33,3407.68 12316.47,3407.67 "/>
   <path class="fil0" d="M12682.97 3226.88c0,27.13 -6.08,45.61 -18.48,55.43 -12.16,9.82 -31.81,14.5 -58.47,14.5 -28.53,0 -48.18,-6.08 -59.17,-18.48 -10.76,-12.16 -16.37,-29.47 -16.37,-51.69 0,-24.09 5.85,-41.63 17.78,-52.63 11.69,-10.99 31.11,-16.61 57.77,-16.61 26.66,0 47.48,5.38 59.17,15.9 11.69,10.76 17.78,28.53 17.78,53.33l-0.01 0.25zm-135.19 893.92l0 -713.13 116.95 0 0 713.13 -116.95 0z"/>
   <polygon class="fil0" points="13931.71,4120.8 13821.54,4120.8 13821.54,3577.71 13627.88,3933.22 13569.41,3933.22 13381.83,3577.71 13381.83,4120.8 13271.67,4120.8 13271.67,3407.67 13393.99,3407.67 13601.45,3774.17 13810.78,3407.67 13931.71,3407.67 "/>
   <path class="fil0" d="M14568.12 4120.8l0 -89.11c-36.25,31.81 -72.74,58 -109.46,78.82 -36.72,20.82 -78.12,31.34 -124.43,31.34 -68.06,0 -120.45,-20.82 -157.41,-62.21 -36.95,-41.4 -55.43,-94.49 -55.43,-159.51 0,-48.88 9.59,-89.58 29,-122.09 19.18,-32.51 47.01,-58 83.73,-76.72 36.49,-18.71 89.35,-32.28 158.81,-40.46l175.42 -15.67 0 -34.62c0,-54.73 -15.2,-92.15 -45.84,-112.27 -30.64,-19.88 -72.97,-29.94 -126.77,-29.94 -47.95,0 -85.14,8.42 -111.1,25.26 -25.96,16.84 -44.67,34.85 -56.13,54.5l-95.89 -58.47c21.75,-39.53 54.96,-69.7 99.64,-90.75 44.67,-21.05 100.1,-31.58 166.3,-31.58 102.44,0 175.88,18.48 220.32,55.67 44.44,37.19 66.66,101.51 66.66,192.96l0 484.62 -116.95 0 -0.47 0.23zm0 -361.59l-114.14 10.99c-77.42,6.78 -132.15,21.99 -163.72,45.14 -31.81,23.39 -47.48,57.54 -47.48,102.21 0,44.67 10.76,73.21 32.04,91.68 21.28,18.48 53.33,27.83 95.89,27.83 17.54,0 35.08,-3.27 52.39,-9.82 17.31,-6.55 34.15,-14.74 50.99,-24.56 16.84,-9.82 32.98,-20.82 48.65,-33.21 15.67,-12.4 30.87,-24.56 45.84,-36.49l0 -174.01 -0.46 0.24z"/>
   <polygon class="fil0" points="15356.09,3501.46 15127.58,3501.46 15127.58,4120.8 15013.45,4120.8 15013.45,3501.46 14784.94,3501.46 14784.94,3407.67 15356.09,3407.67 "/>
   <path class="fil0" d="M15546.48 3778.15c0,94.26 16.14,161.38 48.18,201.61 32.28,40 83.73,60.11 155.07,60.11 31.81,0 59.64,-6.78 83.73,-20.11 24.09,-13.33 47.01,-35.08 69.23,-65.02l96.6 59.88c-27.13,40.7 -60.34,72.27 -99.17,94.26 -39.06,21.99 -91.68,32.98 -158.34,32.98 -106.19,0 -185.24,-30.87 -237.63,-92.39 -52.39,-61.52 -78.59,-154.83 -78.59,-279.5 0,-124.67 25.49,-226.87 76.48,-289.32 50.99,-62.21 127.94,-93.56 230.85,-93.56 92.39,0 161.85,26.66 207.93,79.99 46.31,53.33 69.23,135.19 69.23,245.82l0 65.26 -463.57 -0.01zm349.43 -91.68c-0.94,-63.85 -14.5,-113.44 -40.46,-148.99 -25.96,-35.32 -68.3,-53.09 -126.77,-53.09 -58.47,0 -97.53,15.9 -125.36,47.95 -27.83,32.04 -46.31,83.26 -55.43,153.9l348.02 0 0 0.23z"/>
   <path class="fil0" d="M16799.19 3758.98c0,116.94 -25.49,210.03 -76.48,279.03 -50.99,69.23 -121.15,103.61 -210.5,103.61 -71.1,0 -137.53,-26.43 -199.27,-79.52l0 326.98 -116.95 -0.01 0 -981.63 116.95 0 0 71.34c26.66,-25.73 58.94,-47.48 96.6,-65.26 37.66,-17.78 77.89,-26.43 120.92,-26.43 84.67,0 150.62,32.04 197.87,96.13 47.01,64.09 70.63,156 70.63,275.76l0.23 0zm-120.92 2.8c0,-180.33 -56.6,-270.61 -170.04,-270.61 -37.19,0 -72.74,9.36 -106.65,27.83 -33.91,18.48 -63.38,40 -88.41,63.85l0 377.26c60.81,51.22 121.86,76.72 183.6,76.72 53.09,0 96.6,-22.22 130.51,-66.66 33.91,-44.44 50.99,-113.9 50.99,-208.63l0 0.24z"/>
   <path class="fil0" d="M17129.68 3226.88c0,27.13 -6.08,45.61 -18.48,55.43 -12.16,9.82 -31.81,14.5 -58.47,14.5 -28.53,0 -48.18,-6.08 -59.17,-18.48 -10.76,-12.16 -16.37,-29.47 -16.37,-51.69 0,-24.09 5.85,-41.63 17.78,-52.63 11.69,-10.99 31.11,-16.61 57.77,-16.61 26.66,0 47.25,5.38 59.17,15.9 11.69,10.76 17.78,28.53 17.78,53.33l-0.01 0.25zm-135.19 893.92l0 -713.13 116.94 0 0 713.13 -116.94 0z"/>
   <path class="fil0" d="M17747.61 4120.8l0 -89.11c-36.25,31.81 -72.74,58 -109.46,78.82 -36.72,20.82 -78.12,31.34 -124.43,31.34 -68.06,0 -120.45,-20.82 -157.41,-62.21 -36.95,-41.4 -55.43,-94.49 -55.43,-159.51 0,-48.88 9.59,-89.58 29,-122.09 19.18,-32.51 47.25,-58 83.73,-76.72 36.48,-18.72 89.35,-32.28 158.81,-40.46l175.42 -15.67 0 -34.62c0,-54.73 -15.2,-92.15 -45.84,-112.27 -30.64,-20.12 -72.97,-29.94 -126.77,-29.94 -47.95,0 -85.14,8.42 -111.1,25.26 -26.2,16.84 -44.67,34.85 -56.13,54.5l-95.89 -58.47c21.75,-39.53 54.96,-69.7 99.64,-90.75 44.67,-21.05 100.1,-31.58 166.3,-31.58 102.44,0 175.88,18.48 220.32,55.67 44.44,37.19 66.66,101.51 66.66,192.96l0 484.62 -116.95 0 -0.47 0.23zm0 -361.59l-114.14 10.99c-77.42,6.78 -132.15,21.99 -163.72,45.14 -31.81,23.39 -47.71,57.54 -47.71,102.21 0,44.67 10.76,73.21 32.04,91.68 21.28,18.48 53.33,27.83 95.89,27.83 17.78,0 35.08,-3.27 52.39,-9.82 17.31,-6.55 34.15,-14.74 50.99,-24.56 16.84,-9.82 32.98,-20.82 48.65,-33.21 15.67,-12.4 30.87,-24.56 45.84,-36.49l0 -174.01 -0.23 0.24z"/>
   <path class="fil0" d="M18297.72 3504.04l0 49.58c0,115.54 -9.82,217.98 -29.47,306.86 -19.65,88.88 -47.48,156.47 -83.73,202.31 -36.02,45.84 -78.59,68.76 -127.47,68.76 -11.23,0 -24.79,-1.4 -40.46,-3.98 -15.67,-2.81 -27.37,-5.38 -35.08,-8.19l22.45 -101.98c16.84,3.27 31.11,4.68 42.8,4.68 92.85,0 139.4,-169.57 139.4,-508.48l0 -105.95 413.98 0.02 0 713.13 -114.14 0 0 -616.53 -188.28 0 0 -0.23z"/>
   <polygon class="fil0" points="18954.95,4120.8 18831.22,4120.8 18831.22,3407.67 18941.39,3407.67 18941.39,3970.64 19290.82,3407.67 19409.16,3407.67 19409.16,4120.8 19299,4120.8 19299,3569.52 "/>
  </g>
  <g id="_3293661327248">
   <path class="fil1" d="M2450.3 4680.27c-1283.59,0 -2327.67,-1044.08 -2327.67,-2327.67l924.34 0c0,773.94 629.63,1403.34 1403.34,1403.34 773.71,0 1403.34,-629.63 1403.34,-1403.34 0,-773.71 -629.63,-1403.34 -1403.34,-1403.34l-0.01 -924.33c1283.59,0 2327.67,1044.08 2327.67,2327.67 0,1283.59 -1044.08,2327.67 -2327.67,2327.67z"/>
   <rect class="fil2" x="137.61" y="20.49" width="894.16" height="926.67"/>
  </g>
 </g>
</svg>
